# xmcd
#
# Track frame offsets:
#	150
#	16161
#	38332
#	55483
#	71610
#	88961
#	114288
#	130450
#	146451
#	162002
#	177819
#	186225
#	206877
#	218829
#	236411
#	246398
#
# Disc length: 3511 seconds
#
# Revision: 1
# Processed by: cddbd v1.5.1PL2 Copyright (c) Steve Scherf et al.
# Submitted via: audiograbber 1.83.01
#
DISCID=e20db510
DTITLE=Eva a Vasek - Santa Lucia
DYEAR=2006
DGENRE=
TTITLE0=Cikanka
TTITLE1=Tvuj tichy plac - Bily satek
TTITLE2=Rodny dum
TTITLE3=Modry pavilon
TTITLE4=Kazdy ma pravo
TTITLE5=Necekaj ma uz nikdy (smes)
TTITLE6=Pohadka mladi
TTITLE7=Bile konvalinky
TTITLE8=Santa Lucia
TTITLE9=Krasna cikanka
TTITLE10=Stranger On The Shore
TTITLE11=Praha je krasna - Za rok se vr
TTITLE12=My pluli dal a dal
TTITLE13=Zvonky bile
TTITLE14=Par havranich copanku
TTITLE15=Ceska pisnicka
EXTD=
EXTT0=
EXTT1=
EXTT2=
EXTT3=
EXTT4=
EXTT5=
EXTT6=
EXTT7=
EXTT8=
EXTT9=
EXTT10=
EXTT11=
EXTT12=
EXTT13=
EXTT14=
EXTT15=
PLAYORDER=
